<?xml version="1.0" encoding="UTF-8" standalone="no"?>
<svg width="400px" height="400px" viewBox="0 0 400 400" version="1.1" xmlns="http://www.w3.org/2000/svg" xmlns:xlink="http://www.w3.org/1999/xlink" xmlns:sketch="http://www.bohemiancoding.com/sketch/ns">
    <!-- Generator: Sketch 3.5.1 (25234) - http://www.bohemiancoding.com/sketch -->
    <title>99d logomark in square</title>
    <desc>Created with Sketch.</desc>
    <defs></defs>
    <g id="Logo" stroke="none" stroke-width="1" fill="none" fill-rule="evenodd" sketch:type="MSPage">
        <g id="Logomark-in-square" sketch:type="MSArtboardGroup" transform="translate(-199.000000, -200.000000)" fill="#555555">
            <path d="M350.905111,410.292513 C355.66945,418.843706 362.713175,426.256321 371.764921,431.514282 C379.365523,435.925609 387.566987,438.280809 395.768452,438.866493 L371.380865,481.359782 L407.891009,481.359782 L436.977076,430.689985 C437.223469,438.009929 438.509115,444.767102 440.829585,450.961504 C443.431258,457.877567 447.085989,463.846565 451.793778,468.8685 C456.501568,473.890434 462.08897,477.803305 468.549791,480.638268 C475.016807,483.467 482.109463,484.875136 489.833954,484.875136 C497.143416,484.875136 503.28832,483.716228 508.281054,481.37972 C513.267594,479.049443 517.870077,475.267416 522.088504,470.033638 L522.088504,481.273798 L552.020132,481.273798 L552.020132,329.494251 L520.397417,329.494251 L520.397417,384.180995 C516.042712,379.931666 511.409256,376.7914 506.490855,374.735273 C501.572454,372.685377 495.805413,371.663544 489.202119,371.663544 C481.756379,371.663544 474.837168,373.084141 468.444485,375.906642 C463.780415,377.968474 459.590246,380.609597 455.861986,383.834836 C456.25052,363.957499 446.158047,344.477331 427.830974,333.835794 C401.015159,318.259075 366.722631,327.499185 351.242677,354.471831 C351.131479,354.665552 351.021554,354.859661 350.912898,355.054146 C346.149271,346.503361 339.106328,339.091573 330.054717,333.835794 C303.238903,318.259075 268.946375,327.499185 253.466421,354.471831 C237.980273,381.450708 247.17285,415.937563 273.988665,431.514282 C281.589267,435.925609 289.790731,438.280809 297.992195,438.866493 L273.604609,481.359782 L310.114753,481.359782 L350.576962,410.872014 C350.687607,410.679224 350.796992,410.486049 350.905119,410.292499 Z M199,200 L599,200 L599,600 L199,600 L199,200 Z M514.494097,447.559548 C509.439418,452.65002 502.972402,455.198371 495.105439,455.198371 C491.31443,455.198371 487.765004,454.525457 484.463357,453.179628 C481.161711,451.840031 478.35562,449.970824 476.032698,447.559548 C473.71597,445.160734 471.888605,442.300848 470.550602,438.979892 C469.212598,435.652705 468.549791,432.013983 468.549791,428.063727 C468.549791,424.244316 469.212598,420.674132 470.550602,417.353175 C471.888605,414.032219 473.746943,411.209718 476.138004,408.87321 C478.522871,406.542933 481.372322,404.70488 484.673969,403.365282 C487.975616,402.019453 491.59318,401.346539 495.526662,401.346539 C499.317671,401.346539 502.836124,402.019453 506.069632,403.365282 C509.296945,404.70488 512.10923,406.580317 514.494097,408.985362 C516.885158,411.377946 518.74969,414.175525 520.081499,417.353175 C521.419502,420.537057 522.088504,424.032472 522.088504,427.845653 C522.088504,435.908163 519.55497,442.481538 514.494097,447.559548 Z M377.618686,369.793092 C384.692758,357.475022 400.352352,353.250616 412.604992,360.366061 C424.851439,367.475276 429.045088,383.232685 421.97721,395.550754 C414.903137,407.875054 399.243543,412.093229 386.990903,404.984015 C374.744456,397.868569 370.544613,382.111161 377.618686,369.793092 Z M279.842429,369.793092 C286.916502,357.475022 302.576095,353.250616 314.828736,360.366061 C327.075182,367.475276 331.268832,383.232685 324.200953,395.550754 C317.126881,407.875054 301.467287,412.093229 289.214646,404.984015 C276.9682,397.868569 272.768357,382.111161 279.842429,369.793092 Z" id="99d-logomark-in-square" sketch:type="MSShapeGroup"></path>
        </g>
    </g>
</svg>