<?xml version="1.0" encoding="UTF-8" standalone="no"?>
<svg width="307px" height="159px" viewBox="0 0 307 159" version="1.1" xmlns="http://www.w3.org/2000/svg" xmlns:xlink="http://www.w3.org/1999/xlink" xmlns:sketch="http://www.bohemiancoding.com/sketch/ns">
    <!-- Generator: Sketch 3.5.1 (25234) - http://www.bohemiancoding.com/sketch -->
    <title>99d logomark</title>
    <desc>Created with Sketch.</desc>
    <defs></defs>
    <g id="Logo" stroke="none" stroke-width="1" fill="none" fill-rule="evenodd" sketch:type="MSPage">
        <g id="Logomark-Copy" sketch:type="MSArtboardGroup" transform="translate(-247.000000, -321.000000)" fill="#FFFFFF">
            <path d="M351.961028,405.024633 C356.725367,413.575826 363.769091,420.98844 372.820838,426.246402 C380.42144,430.657728 388.622904,433.012928 396.824368,433.598613 L372.436782,476.091901 L408.946926,476.091901 L438.032992,425.422104 C438.279386,432.742048 439.565031,439.499221 441.885502,445.693623 C444.487175,452.609686 448.141906,458.578685 452.849695,463.600619 C457.557484,468.622553 463.144887,472.535425 469.605708,475.370388 C476.072724,478.19912 483.16538,479.607255 490.889871,479.607255 C498.199333,479.607255 504.344236,478.448347 509.336971,476.11184 C514.323511,473.781563 518.925994,469.999535 523.144421,464.765758 L523.144421,476.005918 L553.076049,476.005918 L553.076049,324.226371 L521.453333,324.226371 L521.453333,378.913115 C517.098628,374.663786 512.465173,371.523519 507.546772,369.467393 C502.628371,367.417496 496.861329,366.395664 490.258036,366.395664 C482.812295,366.395664 475.893084,367.81626 469.500402,370.638762 C464.836332,372.700594 460.646163,375.341716 456.917903,378.566955 C457.306437,358.689619 447.213964,339.209451 428.88689,328.567914 C402.071076,312.991195 367.778548,322.231305 352.298594,349.203951 C352.187396,349.397672 352.077471,349.59178 351.968815,349.786266 C347.205188,341.23548 340.162245,333.823693 331.110634,328.567914 C304.294819,312.991195 270.002292,322.231305 254.522338,349.203951 C239.036189,376.182828 248.228767,410.669683 275.044582,426.246402 C282.645184,430.657728 290.846648,433.012928 299.048112,433.598613 L274.660525,476.091901 L311.170669,476.091901 L351.632878,405.604134 C351.743523,405.411343 351.852908,405.218168 351.961036,405.024619 Z M515.550014,442.291668 C510.495335,447.38214 504.028319,449.930491 496.161356,449.930491 C492.370346,449.930491 488.820921,449.257577 485.519274,447.911748 C482.217627,446.57215 479.411537,444.702944 477.088615,442.291668 C474.771887,439.892853 472.944522,437.032968 471.606518,433.712011 C470.268515,430.384824 469.605708,426.746103 469.605708,422.795847 C469.605708,418.976435 470.268515,415.406251 471.606518,412.085295 C472.944522,408.764339 474.802859,405.941837 477.193921,403.605329 C479.578788,401.275052 482.428239,399.436999 485.729886,398.097402 C489.031533,396.751573 492.649097,396.078659 496.582579,396.078659 C500.373588,396.078659 503.892041,396.751573 507.125549,398.097402 C510.352862,399.436999 513.165147,401.312436 515.550014,403.717482 C517.941075,406.110066 519.805607,408.907644 521.137416,412.085295 C522.475419,415.269176 523.144421,418.764592 523.144421,422.577773 C523.144421,430.640282 520.610887,437.213658 515.550014,442.291668 Z M378.674602,364.525211 C385.748675,352.207142 401.408268,347.982736 413.660909,355.098181 C425.907355,362.207396 430.101004,377.964804 423.033126,390.282873 C415.959054,402.607173 400.29946,406.825349 388.046819,399.716134 C375.800373,392.600689 371.60053,376.84328 378.674602,364.525211 Z M280.898346,364.525211 C287.972419,352.207142 303.632012,347.982736 315.884653,355.098181 C328.131099,362.207396 332.324748,377.964804 325.25687,390.282873 C318.182797,402.607173 302.523204,406.825349 290.270563,399.716134 C278.024117,392.600689 273.824273,376.84328 280.898346,364.525211 Z" id="99d-logomark" sketch:type="MSShapeGroup"></path>
        </g>
    </g>
</svg>