<?xml version="1.0" encoding="utf-8"?>
<!-- Generator: Adobe Illustrator 18.1.1, SVG Export Plug-In . SVG Version: 6.00 Build 0)  -->
<svg version="1.1" id="Layer_1" xmlns:sketch="http://www.bohemiancoding.com/sketch/ns"
	 xmlns="http://www.w3.org/2000/svg" xmlns:xlink="http://www.w3.org/1999/xlink" x="0px" y="0px" viewBox="-105 197 400 400"
	 enable-background="new -105 197 400 400" xml:space="preserve">
<title>99d logomark in square</title>
<desc>Created with Sketch.</desc>
<g id="Logo" sketch:type="MSPage">
	<g id="Logomark-in-square" transform="translate(-199.000000, -200.000000)" sketch:type="MSArtboardGroup">
		<path id="_x39_9d-logomark-in-square" sketch:type="MSShapeGroup" fill="#FFFFFF" d="M245.9,607.3c4.8,8.6,11.8,16,20.9,21.2
			c7.6,4.4,15.8,6.8,24,7.4l-24.4,42.5h36.5l29.1-50.7c0.2,7.3,1.5,14.1,3.9,20.3c2.6,6.9,6.3,12.9,11,17.9
			c4.7,5,10.3,8.9,16.8,11.8c6.5,2.8,13.6,4.2,21.3,4.2c7.3,0,13.5-1.2,18.4-3.5c5-2.3,9.6-6.1,13.8-11.3v11.2H447V526.5h-31.6v54.7
			c-4.4-4.2-9-7.4-13.9-9.4c-4.9-2-10.7-3.1-17.3-3.1c-7.4,0-14.4,1.4-20.8,4.2c-4.7,2.1-8.9,4.7-12.6,7.9c0.4-19.9-9.7-39.4-28-50
			c-26.8-15.6-61.1-6.3-76.6,20.6c-0.1,0.2-0.2,0.4-0.3,0.6c-4.8-8.6-11.8-16-20.9-21.2c-26.8-15.6-61.1-6.3-76.6,20.6
			c-15.5,27-6.3,61.5,20.5,77c7.6,4.4,15.8,6.8,24,7.4l-24.4,42.5h36.5l40.5-70.5C245.7,607.7,245.8,607.5,245.9,607.3z
			 M409.5,644.6c-5.1,5.1-11.5,7.6-19.4,7.6c-3.8,0-7.3-0.7-10.6-2c-3.3-1.3-6.1-3.2-8.4-5.6c-2.3-2.4-4.1-5.3-5.5-8.6
			c-1.3-3.3-2-7-2-10.9c0-3.8,0.7-7.4,2-10.7c1.3-3.3,3.2-6.1,5.6-8.5c2.4-2.3,5.2-4.2,8.5-5.5c3.3-1.3,6.9-2,10.9-2
			c3.8,0,7.3,0.7,10.5,2c3.2,1.3,6,3.2,8.4,5.6c2.4,2.4,4.3,5.2,5.6,8.4c1.3,3.2,2,6.7,2,10.5C417.1,632.9,414.6,639.5,409.5,644.6z
			 M272.6,566.8c7.1-12.3,22.7-16.5,35-9.4c12.2,7.1,16.4,22.9,9.4,35.2c-7.1,12.3-22.7,16.5-35,9.4
			C269.7,594.9,265.5,579.1,272.6,566.8z M174.8,566.8c7.1-12.3,22.7-16.5,35-9.4c12.2,7.1,16.4,22.9,9.4,35.2
			c-7.1,12.3-22.7,16.5-35,9.4C172,594.9,167.8,579.1,174.8,566.8z"/>
	</g>
</g>
</svg>
