<?xml version="1.0" encoding="UTF-8" standalone="no"?>
<svg width="600px" height="142px" viewBox="0 0 600 142" version="1.1" xmlns="http://www.w3.org/2000/svg" xmlns:xlink="http://www.w3.org/1999/xlink" xmlns:sketch="http://www.bohemiancoding.com/sketch/ns">
    <!-- Generator: Sketch 3.5.1 (25234) - http://www.bohemiancoding.com/sketch -->
    <title>99designs wordmark</title>
    <desc>Created with Sketch.</desc>
    <defs></defs>
    <g id="Logo" stroke="none" stroke-width="1" fill="none" fill-rule="evenodd" sketch:type="MSPage">
        <g id="Wordmark-Copy" sketch:type="MSArtboardGroup" transform="translate(-100.000000, -339.000000)" fill="#FFFFFF">
            <path d="M697.809646,392.723056 C696.778891,378.679022 685.827122,370.175295 670.3658,370.175295 C655.935234,370.175295 642.664266,379.323244 642.664266,393.496122 C642.664266,401.871005 647.431507,408.957444 665.469715,414.49775 C676.163796,417.847703 678.611839,419.909213 678.611839,423.903388 C678.611839,427.253341 674.875353,429.443695 671.138867,429.443695 C666.887003,429.443695 663.665894,427.382185 663.021673,422.872633 L641.762356,422.872633 C643.308488,437.432044 654.775635,446.579993 670.881178,446.579993 C687.115565,446.579993 700,437.174355 700,422.228411 C700,411.792019 694.459693,404.963269 677.452239,400.453717 C667.531225,397.87683 664.052427,395.944165 664.052427,392.078834 C664.052427,389.373103 666.629314,387.311593 670.236956,387.311593 C673.715753,387.311593 676.679173,388.600037 676.808018,392.723056 L697.809646,392.723056 Z M571.136114,444.24913 L592.548129,444.24913 L592.548129,404.190959 C592.548129,394.812042 596.594163,390.124699 604.686231,390.124699 C608.58506,390.124699 611.415601,391.317687 613.173649,393.712124 C614.935903,396.10233 615.814927,399.888587 615.814927,405.053972 L615.814927,444.24913 L637.231148,444.24913 L637.231148,399.313245 C637.231148,396.440767 637.109178,393.927877 636.87365,391.770345 C636.633917,389.621274 636.251184,387.700648 635.725452,386.029619 C635.203925,384.354359 634.493136,382.822934 633.588877,381.435345 C632.684617,380.047756 631.519595,378.68132 630.09381,377.344496 C627.81003,375.04736 625.004724,373.253647 621.669479,371.959128 C618.342647,370.668839 614.771875,370.02158 610.965575,370.02158 C606.398015,370.02158 602.612744,370.812675 599.613968,372.386404 C596.619398,373.968594 593.881386,376.528019 591.404136,380.073139 L591.404136,372.462552 L571.136114,372.462552 L571.136114,444.24913 Z M525.25567,430.165432 C516.573822,428.807497 516.765037,425.335192 518.867966,423.647241 C538.601844,431.168989 562.697196,421.620853 562.848606,398.729865 C562.799933,390.342567 559.820924,384.992974 557.526982,382.524845 C559.334225,379.058522 561.405207,377.320545 565.848207,376.247962 L556.820807,360.634651 C548.683811,361.335703 543.327456,366.353726 540.883918,371.513967 C536.078814,369.550776 526.228214,369.319748 518.37588,372.128769 C514.603227,373.469823 511.116572,375.39468 508.105179,378.064096 C505.219961,380.598139 502.957211,383.639835 501.358985,387.146882 C499.676643,390.797764 498.949029,394.706703 498.923794,398.721405 C498.970059,404.178691 500.677636,410.676668 503.86147,415.105954 C495.260493,423.626089 495.731549,436.262456 504.647965,444.253784 C503.705853,444.96873 502.831035,445.776747 502.027716,446.63976 C493.977707,455.430644 497.784007,467.648196 507.032686,474.065795 C518.724966,482.442094 539.480868,482.937057 552.245642,477.268249 C574.679681,468.138928 575.495617,434.714109 549.440336,430.335589 C542.18944,429.117218 533.937518,431.523367 525.25567,430.165432 Z M546.016769,459.034991 C543.568961,462.372819 538.925695,463.540425 535.043689,463.726564 C530.480335,463.946548 524.268285,462.897395 521.14754,459.144983 C518.144558,455.532175 518.846936,450.506395 522.905588,448.031579 C524.057992,447.316632 525.290308,446.885126 526.627771,446.690525 L537.268588,446.690525 C541.916059,446.690525 547.804258,448.006197 547.766405,453.776536 C547.757994,455.595631 547.093468,457.567023 546.016769,459.034991 Z M531.111018,386.246387 C537.617371,386.246387 542.891425,391.551286 542.891425,398.091067 C542.891425,404.630847 537.617371,409.935747 531.111018,409.935747 C524.609262,409.935747 519.335208,404.630847 519.335208,398.091067 C519.335208,391.546661 524.609262,386.246387 531.111018,386.246387 Z M490.214867,444.250822 L468.807058,444.250822 L468.807058,372.464244 L490.214867,372.464244 L490.214867,444.250822 Z M479.50886,364.934459 C486.591522,364.934459 492.332516,359.155658 492.332516,352.035804 C492.332516,344.915949 486.591522,339.137149 479.50886,339.137149 C472.426198,339.137149 466.685204,344.915949 466.685204,352.035804 C466.685204,359.155658 472.426198,364.934459 479.50886,364.934459 Z M460.895531,392.723056 C459.864776,378.679022 448.913007,370.175295 433.451685,370.175295 C419.021119,370.175295 405.750151,379.323244 405.750151,393.496122 C405.750151,401.871005 410.517392,408.957444 428.5556,414.49775 C439.249681,417.847703 441.697724,419.909213 441.697724,423.903388 C441.697724,427.253341 437.961238,429.443695 434.224752,429.443695 C429.972888,429.443695 426.751779,427.382185 426.107558,422.872633 L404.848241,422.872633 C406.394373,437.432044 417.86152,446.579993 433.967063,446.579993 C450.20145,446.579993 463.085885,437.174355 463.085885,422.228411 C463.085885,411.792019 457.545578,404.963269 440.538124,400.453717 C430.61711,397.87683 427.138313,395.944165 427.138313,392.078834 C427.138313,389.373103 429.715199,387.311593 433.322841,387.311593 C436.801638,387.311593 439.765058,388.600037 439.893903,392.723056 L460.895531,392.723056 Z M399.087493,393.709162 C397.18224,388.928749 394.545168,384.787134 391.159454,381.292779 C387.786357,377.798424 383.790793,375.048629 379.172763,373.034932 C374.558938,371.029697 369.58341,370.022849 364.25459,370.022849 C359.115033,370.022849 354.28671,371.029697 349.765415,373.034932 C345.248325,375.048629 341.324261,377.773041 337.993222,381.220861 C334.657978,384.664451 332.020906,388.734148 330.069389,393.425722 C328.117871,398.117296 327.146319,403.138845 327.146319,408.503061 C327.146319,413.858816 328.117871,418.859213 330.069389,423.500021 C332.020906,428.14929 334.687419,432.189374 338.060516,435.637194 C341.442025,439.080784 345.416559,441.788275 349.979913,443.746975 C354.547473,445.709906 359.451502,446.691371 364.683587,446.691371 C372.300393,446.691371 379.147528,444.487305 385.237608,440.083402 C391.066925,435.8741 395.630279,430.133373 398.927671,422.861223 L376.674484,422.861223 C374.390704,425.061059 372.300393,426.541718 370.39514,427.30743 C368.494093,428.077373 366.210313,428.458114 363.5438,428.458114 C359.262238,428.458114 355.68726,427.235512 352.83569,424.79454 C349.979913,422.353568 348.314394,419.121501 347.843338,415.1068 L401.371273,415.1068 C402.498443,407.860032 401.829712,400.604803 399.087493,393.709162 Z M348.411129,400.748638 C349.269123,396.725476 351.102877,393.637245 353.908183,391.483943 C356.713489,389.334873 360.212762,388.256107 364.401795,388.256107 C368.586622,388.256107 372.132159,389.40679 375.0342,391.703927 C377.936241,393.996833 379.765789,397.013147 380.527049,400.748638 L348.411129,400.748638 Z M172.665469,361.304365 C173.153939,360.238645 173.695175,359.185992 174.290042,358.149656 C184.800477,339.83602 208.084099,333.562256 226.291251,344.138392 C244.498404,354.710297 250.735689,378.130092 240.225254,396.443728 L212.752599,444.302857 L187.963281,444.302857 L204.521738,415.451159 C198.953184,415.053496 193.38463,413.454385 188.224044,410.459223 C181.123413,406.334622 175.842678,400.257231 172.665986,393.290991 C172.177861,394.356069 171.63704,395.408063 171.042659,396.443728 L143.570004,444.302857 L118.780686,444.302857 L135.339143,415.451159 C129.770589,415.053496 124.202035,413.454385 119.041449,410.459223 C100.834297,399.883087 94.5928059,376.467523 105.107447,358.149656 C115.617882,339.83602 138.901504,333.562256 157.108656,344.138392 C164.209231,348.26131 169.489299,354.338275 172.665469,361.304365 Z M300.89243,341.190611 L300.89243,378.321308 C297.935712,375.436138 294.789732,373.303989 291.450282,371.907939 C288.110832,370.51612 284.195179,369.822326 279.711736,369.822326 C274.656297,369.822326 269.958355,370.786869 265.617911,372.703265 C261.273262,374.623891 257.534255,377.284847 254.379863,380.694593 C251.233882,384.095878 248.756633,388.152884 246.939703,392.857149 C245.126979,397.557184 244.22272,402.64219 244.22272,408.116397 C244.22272,413.776745 245.10595,418.959052 246.868203,423.663317 C248.634663,428.359121 251.116118,432.411896 254.312569,435.821642 C257.50902,439.231388 261.302703,441.888114 265.689411,443.81297 C270.080325,445.733597 274.896031,446.689679 280.140734,446.689679 C285.103644,446.689679 289.275854,445.902815 292.665774,444.316394 C296.051489,442.734204 299.17644,440.166319 302.040628,436.612737 L302.040628,444.244477 L322.363327,444.244477 L322.363327,341.190611 L300.89243,341.190611 Z M296.884248,421.353489 C293.452269,424.80977 289.061355,426.540026 283.719918,426.540026 C281.145933,426.540026 278.735978,426.083137 276.494256,425.169358 C274.252535,424.259811 272.347282,422.990674 270.770086,421.353489 C269.197095,419.724764 267.956368,417.782985 267.047903,415.528153 C266.139438,413.269091 265.689411,410.798505 265.689411,408.116397 C265.689411,405.523129 266.139438,403.099079 267.047903,400.844247 C267.956368,398.589414 269.218125,396.673019 270.841585,395.086598 C272.46084,393.504408 274.395534,392.256424 276.637255,391.346877 C278.878977,390.433099 281.335197,389.97621 284.005916,389.97621 C286.5799,389.97621 288.968826,390.433099 291.164284,391.346877 C293.355535,392.256424 295.264994,393.529791 296.884248,395.162746 C298.507709,396.787241 299.773672,398.686715 300.677931,400.844247 C301.586396,403.006009 302.040628,405.379293 302.040628,407.968331 C302.040628,413.442539 300.320433,417.905668 296.884248,421.353489 Z M192.198579,368.552343 C197.001667,360.188735 207.634072,357.320487 215.953256,362.151666 C224.268234,366.978614 227.115599,377.677433 222.316717,386.041041 C217.513629,394.40888 206.881224,397.272897 198.56204,392.445949 C190.247061,387.61477 187.395491,376.915951 192.198579,368.552343 Z M123.015984,368.552343 C127.819072,360.188735 138.451477,357.320487 146.770661,362.151666 C155.085639,366.978614 157.933004,377.677433 153.134122,386.041041 C148.331034,394.40888 137.698629,397.272897 129.379445,392.445949 C121.064466,387.61477 118.212896,376.915951 123.015984,368.552343 Z" id="99designs-wordmark" sketch:type="MSShapeGroup"></path>
        </g>
    </g>
</svg>