<svg xmlns="http://www.w3.org/2000/svg" viewBox="0 0 943.3 104.28"><defs><style>.cls-1{fill:#56c5d7;}</style></defs><title>Asset 1</title><g id="Layer_2" data-name="Layer 2"><g id="Layer_1-2" data-name="Layer 1"><path class="cls-1" d="M84.54,93.5H69.36V60.72h-33V93.5H21.29v-77H36.36v30h33v-30H84.54Z" transform="translate(-21.29 -12.87)"/><path class="cls-1" d="M141.31,56.87V93.5H129.1l-.88-6.82c-3,4.51-8,8-15.95,8-9.9,0-16.94-6-16.94-16.06,0-10.89,7.37-15.07,17.27-16.72L127,59.29V57.2c0-5.5-2.75-8.47-7.81-8.47-4.73,0-8.36,2.86-8.36,7.37H97c.66-11.33,9-19.58,22.22-19.58S141.31,43.23,141.31,56.87ZM115.9,71.17c-3.74.88-6.27,2.53-6.27,6.27,0,3.3,2.31,5.5,6.49,5.5A10.32,10.32,0,0,0,125,77.88a14.12,14.12,0,0,0,2-7.37V68.86Z" transform="translate(-21.29 -12.87)"/><path class="cls-1" d="M210.24,65.56c0,16.39-11,29.15-26,29.15-8,0-13.86-3.3-16.72-7.37v29.81h-14.3V37.73h12.32l1,7.48c3.08-4.51,8.25-8.69,17.71-8.69C199.24,36.52,210.24,49.17,210.24,65.56Zm-43-.22V66c.11,9.79,7.15,15.29,14.08,15.29,7.81,0,14.08-6.16,14.08-15.73s-6.16-15.62-14.08-15.62C174.27,49.94,167.23,55.33,167.23,65.34Z" transform="translate(-21.29 -12.87)"/><path class="cls-1" d="M276.55,65.56c0,16.39-11,29.15-26,29.15-8,0-13.86-3.3-16.72-7.37v29.81h-14.3V37.73h12.32l1,7.48c3.08-4.51,8.25-8.69,17.71-8.69C265.55,36.52,276.55,49.17,276.55,65.56Zm-43-.22V66c.11,9.79,7.15,15.29,14.08,15.29,7.81,0,14.08-6.16,14.08-15.73s-6.16-15.62-14.08-15.62C240.58,49.94,233.54,55.33,233.54,65.34Z" transform="translate(-21.29 -12.87)"/><path class="cls-1" d="M303.14,117.15H288.29l8.47-24.31L277,37.73h15.4l10.89,34.21,1.1,4.84,1.1-4.84,10.89-34.21h15.51Z" transform="translate(-21.29 -12.87)"/><path class="cls-1" d="M360.22,71.61h15.4c.44,6.49,3.74,9.24,9.13,9.24,7.48,0,11.66-6.05,12-21.45-2.75,3.08-8,5.61-14.19,5.61C368,65,358.9,55,358.9,40.81c0-15.84,10.78-25.74,25.52-25.74,8.47,0,14.85,2.64,19.47,7.92,5.94,7,8.14,18.15,8.14,30.47,0,27.5-8.69,41.47-27.94,41.47C370.67,94.93,360.66,85.69,360.22,71.61ZM396.08,40.7c0-6.16-4.4-11.77-11.11-11.77-6.27,0-10.67,5-10.67,11.77,0,6.27,4.4,11.44,10.67,11.44A11.16,11.16,0,0,0,396.08,40.7Z" transform="translate(-21.29 -12.87)"/><path class="cls-1" d="M440.66,37.73h12.76v13H440.54l-.22,22.55c0,5.72,1.76,8,7.26,8a19.09,19.09,0,0,0,5.83-.77V93.06a26.48,26.48,0,0,1-9,1.21c-12.21,0-18.48-5-18.37-17.6l.22-26h-9.13v-13h9.13l.11-13.53h14.41Z" transform="translate(-21.29 -12.87)"/><path class="cls-1" d="M477.08,43.56c2.42-3.63,6.93-7,14.19-7,11.88,0,18,8.14,18,20.79V93.5H494.9V60.39c0-6.49-2.75-10-7.92-10-5.5,0-9.9,4.4-9.9,13.64V93.5H462.89V13.2h14.19Z" transform="translate(-21.29 -12.87)"/><path class="cls-1" d="M595.32,38.5c0,6.71-2.42,11.55-6.71,15,6.6,2.86,11,9,11,17.38,0,13.64-10.12,22.66-26.07,22.66H545.49v-77H570C585.53,16.5,595.32,24.86,595.32,38.5Zm-34.76-7.92V48.07h9.57c6,0,9.68-3.3,9.68-8.47,0-6-3.74-9-9.79-9Zm0,30.69V79.42h13c6.38,0,10.34-3.3,10.34-9.13s-3.85-9-10.34-9Z" transform="translate(-21.29 -12.87)"/><path class="cls-1" d="M625.37,21.34a8.69,8.69,0,1,1-8.69-8.47A8.52,8.52,0,0,1,625.37,21.34ZM623.83,93.5h-14.3V37.73h14.3Z" transform="translate(-21.29 -12.87)"/><path class="cls-1" d="M666.35,51.48c-4.4,0-7.81.77-11.11,3.3-2.64,2.09-4.29,5.28-4.51,10.34V93.5h-14.3V37.73h12.32l1.32,8.91c1.87-4.95,6.82-9.46,16.28-9.46Z" transform="translate(-21.29 -12.87)"/><path class="cls-1" d="M694,37.73h12.76v13H693.88l-.22,22.55c0,5.72,1.76,8,7.26,8a19.09,19.09,0,0,0,5.83-.77V93.06a26.48,26.48,0,0,1-9,1.21c-12.21,0-18.48-5-18.37-17.6l.22-26h-9.13v-13h9.13l.11-13.53H694.1Z" transform="translate(-21.29 -12.87)"/><path class="cls-1" d="M730.41,43.56c2.42-3.63,6.93-7,14.19-7,11.88,0,18,8.14,18,20.79V93.5H748.23V60.39c0-6.49-2.75-10-7.92-10-5.5,0-9.9,4.4-9.9,13.64V93.5H716.22V13.2h14.19Z" transform="translate(-21.29 -12.87)"/><path class="cls-1" d="M828.14,93.5H815.82L814.72,86c-3.08,4.51-8.14,8.69-17.71,8.69-15,0-25.85-12.76-25.85-29.15s10.89-29,26-29c7.92,0,13.75,3.3,16.72,7.26V13.2h14.3ZM785.9,65.56c0,9.57,6.16,15.73,14.08,15.73,7,0,14.08-5.39,14.08-15.4v-.66c-.11-9.9-7.15-15.29-14.08-15.29C792.17,49.94,785.9,56.1,785.9,65.56Z" transform="translate(-21.29 -12.87)"/><path class="cls-1" d="M883.73,56.87V93.5H871.52l-.88-6.82c-3,4.51-8,8-16,8-9.9,0-16.94-6-16.94-16.06,0-10.89,7.37-15.07,17.27-16.72l14.41-2.64V57.2c0-5.5-2.75-8.47-7.81-8.47-4.73,0-8.36,2.86-8.36,7.37H839.4c.66-11.33,9-19.58,22.22-19.58S883.73,43.23,883.73,56.87Zm-25.41,14.3C854.58,72,852,73.7,852,77.44c0,3.3,2.31,5.5,6.49,5.5a10.32,10.32,0,0,0,8.91-5.06,14.12,14.12,0,0,0,2-7.37V68.86Z" transform="translate(-21.29 -12.87)"/><path class="cls-1" d="M913.39,117.15H898.54L907,92.84l-19.8-55.11h15.4L913.5,71.94l1.1,4.84,1.1-4.84,10.89-34.21H942.1Z" transform="translate(-21.29 -12.87)"/><path class="cls-1" d="M964.58,86a8.91,8.91,0,0,1-17.82,0,8.92,8.92,0,0,1,17.82,0Zm-1.76-16h-14.3V16.5h14.3Z" transform="translate(-21.29 -12.87)"/></g></g></svg>