<?xml version="1.0" encoding="utf-8"?>
<!-- Generator: Adobe Illustrator 20.0.0, SVG Export Plug-In . SVG Version: 6.00 Build 0)  -->
<svg version="1.1" id="Layer_1" xmlns="http://www.w3.org/2000/svg" xmlns:xlink="http://www.w3.org/1999/xlink" x="0px" y="0px"
	 viewBox="0 0 153.6 62.9" enable-background="new 0 0 153.6 62.9" xml:space="preserve">
<g>
	<path d="M27.3,26.3h-5.2l-4.2-14.5l-0.4-1.7l-0.3,1.7l-4.3,14.5H7.7L0,1.1h5.2L10,17.1l0.4,1.8l0.3-1.8l4.5-16.1h4.5l4.6,16.1
		l0.3,1.8l0.4-1.8l4.8-16.1H35L27.3,26.3z"/>
	<path d="M51.9,17.1v1.4H39.2c0.1,2.4,1.8,4.1,4.4,4.1c1.8,0,3.2-0.8,3.7-2.1h4.5c-1.1,3.9-3.9,6.1-8.4,6.1c-5.4,0-9.1-3.7-9.1-9.5
		c0-5.5,3.6-9.5,9.1-9.5C48.3,7.6,51.9,10.7,51.9,17.1z M39.3,15.3h8c0-2.3-1.5-3.8-3.9-3.8C41,11.5,39.5,13.1,39.3,15.3z"/>
	<path d="M60.6,26.3h-4.7V0h4.7V26.3z"/>
	<path d="M81.8,14.5h-4.5c-0.5-1.7-1.9-2.6-3.8-2.6c-2.5,0-4.4,2.2-4.4,5.3c0,3,1.9,5.2,4.5,5.2c1.9,0,3.3-1.1,3.7-2.6h4.6
		c-0.9,4.5-4.3,6.8-8.5,6.8c-5.3,0-9.1-3.9-9.1-9.5c0-5.5,3.8-9.5,9.1-9.5C77.7,7.6,81.1,9.9,81.8,14.5z"/>
	<path d="M103.5,17.1c0,5.7-4.1,9.5-9.6,9.5c-5.5,0-9.5-3.9-9.5-9.5c0-5.7,4.1-9.5,9.5-9.5C99.4,7.6,103.5,11.5,103.5,17.1z
		 M89.1,17.1c0,3,1.9,5.3,4.8,5.3c2.8,0,4.7-2.3,4.7-5.3c0-3-1.9-5.3-4.7-5.3C91.1,11.9,89.1,14.1,89.1,17.1z"/>
	<path d="M132.7,14.4v11.8H128V15.4c0-2.1-0.8-3.3-2.6-3.3c-1.7,0-3.1,1.4-3.2,4.2v9.9h-4.7V15.4c0-2.1-0.9-3.3-2.6-3.3
		c-1.8,0-3.2,1.4-3.2,4.5v9.6h-4.6V8h4l0.4,2.4c0.8-1.5,2.5-2.8,4.9-2.8c2.6,0,4.4,1.2,5.2,3.2c0.9-1.7,2.7-3.2,5.3-3.2
		C130.7,7.6,132.7,10.3,132.7,14.4z"/>
	<path d="M153.6,17.1v1.4h-12.7c0.1,2.4,1.8,4.1,4.4,4.1c1.8,0,3.2-0.8,3.7-2.1h4.5c-1.1,3.9-3.9,6.1-8.4,6.1
		c-5.4,0-9.1-3.7-9.1-9.5c0-5.5,3.6-9.5,9.1-9.5C149.9,7.6,153.6,10.7,153.6,17.1z M140.9,15.3h8c0-2.3-1.5-3.8-3.9-3.8
		C142.7,11.5,141.1,13.1,140.9,15.3z"/>
	<path d="M40.9,54.8c0,5.4-2.8,8-7.8,8c-5.5,0-8.1-3.5-8.2-8.6h4.9c0.1,2.6,1.2,3.9,3.3,3.9c1.8,0,2.8-1.3,2.8-3.6V37.3h5V54.8z"/>
	<path d="M60.5,62.5h-4l-0.4-2.4c-0.8,1.6-2.4,2.8-4.8,2.8c-3.9,0-5.9-2.7-5.9-6.8V44.2h4.7V55c0,2.2,0.9,3.3,2.6,3.3
		c1.7,0,3.1-1.4,3.1-4.3v-9.8h4.6V62.5z"/>
	<path d="M82.8,62.5h-4L78.4,60c-1,1.5-2.7,2.8-5.8,2.8c-4.9,0-8.5-4.2-8.5-9.5c0-5.4,3.6-9.5,8.5-9.5c2.6,0,4.5,1.1,5.5,2.4v-10
		h4.7V62.5z M69,53.3c0,3.1,2,5.1,4.6,5.1c2.3,0,4.6-1.8,4.6-5v-0.2c0-3.2-2.3-5-4.6-5C71,48.2,69,50.2,69,53.3z"/>
	<path d="M92.9,38.9c0,1.6-1.3,2.8-2.8,2.8c-1.6,0-2.8-1.2-2.8-2.8c0-1.5,1.3-2.8,2.8-2.8C91.6,36.1,92.9,37.3,92.9,38.9z
		 M92.4,62.5h-4.7V44.2h4.7V62.5z"/>
	<path d="M103.2,44.2h4.2v4.2h-4.2l-0.1,7.4c0,1.9,0.6,2.6,2.4,2.6c0.9,0,1.4-0.1,1.9-0.3v4.1c-0.6,0.2-1.5,0.4-3,0.4
		c-4,0-6-1.6-6-5.8l0.1-8.5h-3v-4.2h3l0-4.4h4.7L103.2,44.2z"/>
	<path d="M115.7,46.1c0.8-1.2,2.3-2.3,4.6-2.3c3.9,0,5.9,2.7,5.9,6.8v11.8h-4.7V51.6c0-2.1-0.9-3.3-2.6-3.3c-1.8,0-3.2,1.4-3.2,4.5
		v9.6h-4.6V36.2h4.6V46.1z"/>
	<path d="M135.5,60c0,1.6-1.3,2.8-2.9,2.8s-2.9-1.2-2.9-2.8s1.3-2.8,2.9-2.8S135.5,58.4,135.5,60z M134.9,54.8h-4.7V37.3h4.7V54.8z"
		/>
</g>
</svg>
